<?xml version="1.0" standalone="no"?>
<!DOCTYPE svg PUBLIC "-//W3C//DTD SVG 20010904//EN"
 "http://www.w3.org/TR/2001/REC-SVG-20010904/DTD/svg10.dtd">
<svg version="1.0" xmlns="http://www.w3.org/2000/svg"
 width="500.000000pt" height="500.000000pt" viewBox="0 0 500.000000 500.000000"
 preserveAspectRatio="xMidYMid meet">
<metadata>
Created by potrace 1.14, written by Peter Selinger 2001-2017
</metadata>
<g transform="translate(0.000000,500.000000) scale(0.100000,-0.100000)"
fill="#000000" stroke="none">
<path d="M2920 4965 c774 -166 1445 -413 1942 -715 72 -44 132 -80 134 -80 2
0 4 187 4 415 l0 415 -1117 -1 -1118 -1 155 -33z"/>
<path d="M710 4980 c-231 -8 -361 -18 -582 -47 l-128 -17 0 -163 c0 -98 4
-163 10 -163 5 0 33 9 62 21 130 51 335 106 518 138 840 149 1874 46 2703
-269 97 -37 113 -51 21 -20 -156 54 -446 123 -679 160 -341 56 -622 74 -1005
67 -637 -13 -1111 -104 -1487 -288 l-143 -70 0 -453 0 -453 58 -45 c309 -244
865 -506 1392 -658 779 -224 1714 -296 2530 -194 334 41 648 121 787 199 39
21 42 22 33 4 -18 -32 -101 -108 -172 -155 -333 -223 -933 -336 -1698 -321
-1136 22 -2194 324 -2877 821 l-53 38 0 -1556 0 -1556 2500 0 2500 0 0 995 c0
1100 6 1010 -64 981 -84 -35 -364 -104 -575 -142 -541 -97 -1264 -115 -1941
-48 -712 69 -1404 229 -1965 453 -139 56 -347 152 -342 158 2 2 30 -6 63 -18
32 -11 118 -36 189 -55 453 -122 990 -204 1665 -256 219 -16 996 -16 1200 0
743 61 1279 207 1636 445 55 37 107 73 116 80 17 13 18 57 18 663 l-1 649 -55
44 c-312 249 -905 516 -1549 696 -657 184 -1425 306 -2075 330 -305 11 -392
12 -610 5z m1972 -524 c873 -108 1583 -411 1853 -791 194 -273 178 -529 -46
-701 -154 -118 -413 -207 -724 -249 -150 -21 -515 -32 -700 -23 -391 20 -821
99 -1126 208 -122 44 -302 120 -296 127 2 2 17 -1 32 -7 130 -49 464 -113 775
-147 237 -26 821 -26 1000 0 511 75 788 213 907 453 66 134 57 226 -37 366
-84 129 -186 209 -393 312 -348 171 -799 294 -1317 358 -241 30 -792 33 -970
5 -190 -30 -381 -86 -467 -137 -53 -31 -29 -6 34 36 155 103 425 178 743 208
102 9 610 -3 732 -18z m18 -302 c143 -21 224 -39 363 -81 129 -40 153 -56 36
-24 -288 79 -726 94 -1014 35 -277 -56 -456 -173 -455 -296 1 -180 365 -415
825 -533 353 -91 797 -110 1130 -49 86 16 204 51 220 65 25 24 25 5 -1 -22
-78 -83 -259 -144 -499 -170 -122 -13 -461 -7 -585 11 -523 75 -932 259 -1116
503 -90 120 -110 216 -65 310 66 137 310 241 624 267 134 11 405 3 537 -16z
m-1836 -2824 c113 -17 206 -73 241 -147 20 -42 22 -102 4 -131 -18 -28 -77
-52 -112 -45 -34 7 -53 33 -67 96 -25 113 -64 149 -158 149 -150 -2 -246 -134
-259 -354 -16 -275 110 -478 299 -478 80 0 155 35 223 104 l54 55 23 -18 23
-19 -46 -58 c-92 -119 -190 -168 -334 -167 -161 2 -273 57 -352 174 -61 92
-84 175 -86 309 -2 112 13 180 60 273 80 160 210 245 408 266 6 0 41 -4 79 -9z
m1012 -16 c174 -48 255 -245 123 -298 -35 -14 -44 -14 -74 -2 -26 11 -36 23
-44 53 -6 21 -11 44 -11 51 0 31 -45 104 -72 118 -37 19 -125 20 -169 1 -137
-57 -206 -274 -164 -510 54 -302 308 -405 508 -205 52 52 80 62 91 32 14 -36
-110 -169 -189 -205 -85 -38 -227 -43 -330 -11 -129 40 -235 162 -271 312 -18
75 -18 242 1 313 72 278 327 427 601 351z m857 -6 c82 -25 86 -31 94 -170 l6
-98 -31 0 c-27 0 -32 5 -46 47 -36 107 -117 175 -207 175 -110 1 -164 -46
-164 -142 0 -106 22 -129 191 -200 220 -94 294 -176 294 -324 0 -187 -180
-303 -425 -275 -44 5 -113 12 -152 16 l-73 6 0 91 c0 50 -3 122 -7 159 l-6 68
33 -3 c32 -3 34 -6 47 -62 25 -113 80 -182 164 -206 99 -29 211 14 253 97 19
37 20 64 5 116 -18 66 -60 101 -217 181 -202 103 -239 141 -249 257 -11 112
35 198 135 252 92 50 223 56 355 15z"/>
</g>
</svg>
