<?xml version="1.0" standalone="no"?>
<!DOCTYPE svg PUBLIC "-//W3C//DTD SVG 20010904//EN"
 "http://www.w3.org/TR/2001/REC-SVG-20010904/DTD/svg10.dtd">
<svg version="1.0" xmlns="http://www.w3.org/2000/svg"
 width="1090.000000pt" height="1090.000000pt" viewBox="0 0 1090.000000 1090.000000"
 preserveAspectRatio="xMidYMid meet">
<metadata>
Created by potrace 1.14, written by Peter Selinger 2001-2017
</metadata>
<g transform="translate(0.000000,1090.000000) scale(0.100000,-0.100000)"
fill="#000000" stroke="none">

<path d="M4640 10049 c-1787 -68 -3298 -929 -3744 -2132 -71 -191 -116 -407
-131 -634 l-7 -93 350 0 350 0 6 83 c36 452 175 821 445 1181 513 680 1418
1162 2426 1290 148 19 374 36 478 36 l77 0 0 140 0 140 -27 -2 c-16 0 -116 -5
-223 -9z"/>
<path d="M4535 9249 c-1066 -80 -1960 -519 -2402 -1179 -154 -230 -254 -526
-265 -780 l-3 -75 346 -3 346 -2 7 31 c3 17 6 51 6 74 0 126 64 354 146 516
92 184 191 316 362 480 126 121 244 210 408 309 326 194 787 335 1162 355 59
3 131 8 160 11 l52 5 0 135 0 134 -107 -1 c-60 -1 -157 -6 -218 -10z"/>
<path d="M4620 8484 c-256 -24 -423 -54 -602 -108 -630 -191 -1037 -591 -1084
-1065 l-7 -71 350 0 349 0 12 90 c49 362 340 672 767 815 95 32 258 65 323 65
96 0 92 -6 92 146 l0 134 -82 -2 c-46 0 -99 -3 -118 -4z"/>
<path d="M5370 8113 l0 -258 -132 -132 -133 -133 -257 0 -258 0 0 -250 0 -250
115 0 115 0 0 -90 0 -90 -115 0 -115 0 0 -250 0 -249 113 -3 112 -3 0 -90 0
-90 -112 -3 -113 -3 0 -249 0 -250 115 0 115 0 0 -90 0 -90 -115 0 -115 0 0
-250 0 -249 113 -3 112 -3 0 -90 0 -90 -112 -3 -113 -3 0 -249 0 -250 115 0
115 0 0 -90 0 -90 -115 0 -115 0 0 -250 0 -249 113 -3 112 -3 3 -278 2 -277
275 0 275 0 0 -110 0 -110 250 0 250 0 0 110 0 110 90 0 90 0 0 -110 0 -110
250 0 250 0 0 110 0 111 93 -3 92 -3 3 -107 3 -108 249 0 250 0 0 110 0 110
90 0 90 0 0 -110 0 -110 250 0 250 0 0 110 0 111 93 -3 92 -3 3 -107 3 -108
244 0 244 0 3 108 3 107 93 3 92 3 0 -111 0 -110 250 0 250 0 0 110 0 110 275
0 275 0 0 280 0 280 115 0 115 0 0 250 0 250 -115 0 -115 0 0 90 0 90 115 0
115 0 0 250 0 250 -115 0 -115 0 0 95 0 95 115 0 115 0 0 250 0 250 -115 0
-115 0 0 90 0 90 115 0 115 0 0 250 0 250 -115 0 -115 0 0 95 0 95 115 0 115
0 0 250 0 250 -115 0 -115 0 0 90 0 90 115 0 115 0 0 250 0 250 -115 0 -115 0
0 270 0 270 -275 0 -275 0 0 120 0 120 -250 0 -250 0 0 -120 0 -121 -92 3 -93
3 -3 118 -3 117 -244 0 -244 0 -3 -117 -3 -118 -92 -3 -93 -3 0 121 0 120
-250 0 -250 0 0 -120 0 -120 -90 0 -90 0 0 120 0 120 -250 0 -249 0 -3 -117
-3 -118 -92 -3 -93 -3 0 121 0 120 -250 0 -250 0 0 -120 0 -120 -90 0 -90 0 0
120 0 120 -250 0 -250 0 0 -257z m429 -619 c151 -50 265 -151 336 -299 50
-106 64 -157 75 -283 11 -121 -4 -271 -35 -370 -65 -204 -221 -356 -420 -407
-77 -19 -250 -19 -334 0 -212 50 -373 214 -437 445 -26 94 -27 387 -1 480 51
183 164 328 311 401 47 23 113 46 156 54 107 21 251 12 349 -21z m1348 -344
c116 -54 203 -173 239 -326 22 -96 15 -315 -14 -394 -32 -90 -61 -140 -115
-197 -73 -77 -139 -106 -252 -111 -148 -7 -245 33 -315 130 l-30 41 0 -271 0
-272 -85 0 -85 0 0 705 0 705 85 0 85 0 0 -71 0 -71 46 51 c78 87 176 124 304
116 54 -4 91 -13 137 -35z m1046 30 c92 -15 169 -55 232 -121 87 -91 123 -190
127 -354 l3 -90 -386 -3 -386 -2 9 -58 c11 -73 59 -173 101 -208 63 -54 133
-78 237 -82 130 -5 218 15 378 85 9 4 12 -14 12 -71 0 -73 -1 -76 -29 -90
-102 -53 -365 -83 -494 -56 -125 26 -254 115 -314 218 -66 112 -90 294 -59
441 59 279 289 437 569 391z m1269 -16 c105 -36 185 -145 207 -284 6 -36 11
-215 11 -402 l0 -338 -84 0 -85 0 -3 368 c-3 328 -5 371 -21 407 -38 84 -103
124 -203 125 -123 0 -210 -54 -260 -162 l-29 -63 -3 -338 -4 -338 -81 3 -82 3
-3 508 -2 507 85 0 85 0 0 -77 0 -78 46 53 c81 93 185 136 309 127 39 -2 91
-12 117 -21z m-3447 -1449 c106 -22 198 -55 283 -100 l77 -41 3 -129 3 -128
-33 26 c-179 145 -377 205 -604 185 -158 -14 -271 -65 -367 -167 -70 -75 -117
-162 -149 -278 -19 -68 -22 -104 -22 -278 0 -174 3 -210 22 -278 35 -126 78
-203 157 -283 116 -117 241 -163 443 -164 58 0 135 7 175 16 92 20 241 91 312
149 30 25 57 45 60 45 3 0 5 -56 5 -125 l0 -124 -112 -55 c-148 -73 -239 -96
-404 -103 -288 -12 -490 55 -662 221 -41 39 -94 103 -118 142 -193 309 -190
829 5 1127 59 90 178 203 262 250 73 41 192 83 271 96 88 14 316 12 393 -4z
m1390 0 c284 -60 457 -297 415 -568 -30 -196 -85 -269 -599 -797 l-223 -230
418 -2 419 -3 3 -102 3 -103 -571 0 -570 0 0 103 0 103 345 352 c354 363 446
470 499 582 28 59 31 74 31 160 0 87 -3 100 -30 149 -28 51 -83 104 -135 131
-140 73 -375 43 -622 -81 l-78 -39 0 123 0 124 108 37 c60 20 149 45 198 56
110 23 292 25 389 5z m1316 -346 c121 -182 223 -329 225 -326 3 2 103 150 222
328 l217 324 133 3 132 3 -286 -426 c-161 -240 -283 -432 -280 -440 2 -7 136
-213 296 -456 161 -244 294 -449 297 -456 4 -10 -21 -13 -121 -13 l-127 0
-245 373 c-135 204 -249 375 -253 380 -4 4 -122 -164 -261 -373 l-253 -380
-129 0 c-101 0 -128 3 -122 13 4 6 147 221 317 475 169 255 306 470 303 477
-2 7 -127 196 -275 419 l-271 406 130 0 130 0 221 -331z"/>
<path d="M5485 7367 c-154 -40 -262 -156 -311 -338 -25 -90 -25 -319 -1 -409
40 -150 123 -262 234 -317 54 -26 66 -28 178 -28 104 0 127 3 169 23 109 50
184 140 233 278 26 74 28 89 27 244 0 151 -2 172 -26 242 -47 142 -137 248
-245 288 -70 26 -191 34 -258 17z"/>
<path d="M6883 7041 c-91 -23 -167 -101 -199 -206 -35 -113 -28 -308 16 -409
25 -59 85 -125 135 -147 49 -22 161 -25 209 -5 112 47 185 193 186 372 0 182
-62 319 -171 375 -43 22 -130 32 -176 20z"/>
<path d="M8048 7039 c-133 -18 -230 -117 -253 -257 l-7 -42 299 2 298 3 -2 40
c-11 177 -147 279 -335 254z"/>
<path d="M3181 6199 c-156 -20 -263 -72 -329 -161 -57 -76 -91 -148 -201 -431
-320 -818 -539 -1282 -779 -1645 -41 -63 -64 -109 -71 -145 -15 -72 -7 -1333
8 -1401 32 -135 119 -198 330 -233 86 -15 321 -17 2251 -19 1185 -1 2468 -5
2850 -8 1048 -10 1284 9 1413 115 60 49 88 119 102 246 l6 63 -1988 2 c-1909
3 -1990 4 -2043 22 -100 33 -180 79 -245 138 -81 74 -131 150 -169 258 l-31
85 -3 637 -3 638 -844 2 -844 3 273 630 c150 347 285 655 299 686 49 102 -4
94 593 97 l524 3 0 208 c0 181 -2 210 -16 215 -24 9 -1009 5 -1083 -5z m-379
-2290 c371 -77 512 -537 250 -813 -159 -166 -421 -195 -618 -68 -215 139 -281
432 -150 657 36 60 119 138 185 173 107 58 219 75 333 51z"/>
<path d="M2206 1683 c-7 -369 3 -616 29 -702 21 -67 65 -114 126 -133 50 -15
635 -19 702 -5 55 12 104 59 123 120 22 71 28 325 19 730 l-7 327 -493 0 -492
0 -7 -337z"/>
<path d="M7350 1598 c0 -543 12 -643 85 -707 54 -47 106 -52 457 -49 292 3
315 4 347 23 47 28 70 63 88 131 12 47 16 154 20 537 l5 477 -501 0 -501 0 0
-412z"/>
</g>
</svg>
